
<svg version="1.1" id="Layer_1" xmlns="http://www.w3.org/2000/svg" xmlns:xlink="http://www.w3.org/1999/xlink" x="0px" y="0px" viewBox="0 0 315 176.838" style="enable-background:new 0 0 315 176.838;" xml:space="preserve">
      <style type="text/css">.st0{fill:#6689F7;}	.st1{fill:#3737B7;}	.st2{opacity:0.3;enable-background:new    ;}	.st3{fill:#FFFFFF;}</style>
    <g id="color_index_1" fill="#6689f7">
              <path d="M217.387,54.537c-2.057,12.226-8.411,31.972-19.399,54.084c-6.008,12.09-13.651,22.347-21.195,31.092&#x9;&#x9;c-36.151,0.097-81.444-0.519-110.293-0.987c-4.256,5.249-10.75,8.61-18.034,8.61c-12.821,0-23.214-10.393-23.214-23.214&#x9;&#x9;c0-5.181,1.718-9.949,4.587-13.811c-5.694,4.23-9.4,10.987-9.4,18.625c0,2.49,0.384,4.881,1.115,7.11&#x9;&#x9;C10.678,134.002,0,131.265,0,131.265c3.828-11.644,0-27.475,0-27.475c28.058-23.387,89.326-24.663,89.326-24.663&#x9;&#x9;C141.65,49.78,185.527,48.306,217.387,54.537z M118.651,147.048c-4.212-0.044-8.392-0.087-12.484-0.141&#x9;&#x9;c1.926,5.322,4.898,9.132,8.761,11.08c2.928,1.469,6.411,1.894,10.286,1.295C122.134,156.887,119.903,152.697,118.651,147.048z&#x9;&#x9; M190.181,8.146c-7.826-3.929-19.559-0.327-32.206,9.883c-10.633,8.588-20.952,20.93-29.844,35.569&#x9;&#x9;c7.379-2.427,14.759-4.397,22.105-5.91c6.454-8.675,13.377-16.087,20.429-21.779c10.492-8.479,20.059-12.125,26.709-10.275&#x9;&#x9;C195.525,12.173,193.119,9.626,190.181,8.146z M51.546,35.419c-0.32,3.164-2.722,5.72-5.859,6.236l-2.229,0.367l2.229,0.367&#x9;&#x9;c3.137,0.517,5.539,3.073,5.859,6.236l0.7,6.92l0.7-6.92c0.32-3.164,2.722-5.72,5.859-6.236l2.229-0.367l-2.229-0.367&#x9;&#x9;c-3.137-0.517-5.539-3.073-5.859-6.236l-0.7-6.92L51.546,35.419z M102.558,51.959c-0.905,0-1.639,0.734-1.639,1.639&#x9;&#x9;s0.734,1.639,1.639,1.639s1.639-0.734,1.639-1.639S103.463,51.959,102.558,51.959z M84.196,28.456&#x9;&#x9;c-0.905,0-1.639,0.734-1.639,1.639s0.734,1.639,1.639,1.639s1.639-0.734,1.639-1.639S85.101,28.456,84.196,28.456z"/>
          </g>
    <g id="color_index_0" fill="#3737b7">
              <path d="M309.042,79.126c0,0-24.651,2.131-36.555-3.407c-5.381-2.483-22.637-13.703-49.323-19.948&#x9;&#x9;c0.45-3.436,0.755-6.802,0.884-10.063c0.846-21.425-5.497-36.643-17.867-42.856c-3.975-1.997-8.326-2.938-12.954-2.846&#x9;&#x9;c0.284,0.126,0.571,0.263,0.849,0.402c20.758,10.426,21.408,50.428,2.409,93.433c-2.213,5.008-4.636,9.963-7.244,14.777&#x9;&#x9;c-23.255,42.92-56.897,67.814-78.204,57.112c-0.277-0.139-0.558-0.288-0.829-0.441c2.689,3.767,6.042,6.696,10.017,8.692&#x9;&#x9;c12.37,6.213,28.365,2.215,45.043-11.249c7.602-6.14,15.029-13.979,21.944-23.064c16.699-0.106,30.59-0.415,38.674-1.009&#x9;&#x9;c-1.363-2.961-2.131-6.256-2.131-9.724c0-7.641,3.708-14.399,9.405-18.629c-2.87,3.863-4.589,8.632-4.589,13.815&#x9;&#x9;c0,12.821,10.393,23.214,23.214,23.214c7.732,0,14.561-3.795,18.78-9.608c8.233-2.453,30.284-9.349,38.478-15.234&#x9;&#x9;c2.985-2.131,5.537-7.656,5.958-13.18C315,109.314,306.923,94.016,309.042,79.126z"/>
          </g>
    <g>
              <path class="st2" d="M223.163,55.773c-2.216,16.928-8.245,35.733-17.426,54.012c-5.467,10.885-11.751,20.983-18.527,29.886&#x9;&#x9;c1.379-0.01,2.751-0.02,4.092-0.032c7.5-7.91,14.659-16.974,21.135-26.87c11.577-17.69,19.874-36.322,23.86-53.342&#x9;&#x9;C232.22,58.104,227.831,56.865,223.163,55.773z"/>
          </g>
    <g>
              <path class="st3" d="M117.234,76.139l0.636,6.284c0.291,2.873,2.471,5.194,5.32,5.663l2.024,0.333l-2.024,0.333&#x9;&#x9;c-2.849,0.469-5.03,2.79-5.32,5.663l-0.636,6.284l-0.636-6.284c-0.291-2.873-2.471-5.194-5.32-5.663l-2.024-0.333l2.024-0.333&#x9;&#x9;c2.849-0.469,5.03-2.79,5.32-5.663L117.234,76.139z M47.785,99.45c-0.179,1.765-1.518,3.191-3.269,3.479l-1.243,0.205l1.243,0.205&#x9;&#x9;c1.75,0.288,3.09,1.714,3.269,3.479l0.391,3.86l0.391-3.86c0.179-1.765,1.518-3.191,3.269-3.479l1.243-0.205l-1.243-0.205&#x9;&#x9;c-1.75-0.288-3.09-1.714-3.269-3.479l-0.391-3.86L47.785,99.45z"/>
          </g>
  </svg>